<svg width="35" height="26" viewBox="0 0 35 26" fill="none" xmlns="http://www.w3.org/2000/svg">
<g clip-path="url(#clip0_307_73)">
<path d="M33 0.5H2C1.17157 0.5 0.5 1.17157 0.5 2V24C0.5 24.8284 1.17157 25.5 2 25.5H33C33.8284 25.5 34.5 24.8284 34.5 24V2C34.5 1.17157 33.8284 0.5 33 0.5Z" stroke="black" stroke-opacity="0.26"/>
<path d="M5.875 11.4331V15H5.28662V12.1313L4.41504 12.4268V11.9409L5.8042 11.4331H5.875ZM8.75586 14.4531V11.25H9.34668V15H8.81201L8.75586 14.4531ZM7.03711 13.7085V13.6572C7.03711 13.457 7.06071 13.2747 7.10791 13.1104C7.15511 12.9443 7.22347 12.8019 7.31299 12.6831C7.40251 12.5627 7.51156 12.4707 7.64014 12.4072C7.76872 12.3421 7.91357 12.3096 8.07471 12.3096C8.23421 12.3096 8.37419 12.3405 8.49463 12.4023C8.61507 12.4642 8.71761 12.5529 8.80225 12.6685C8.88688 12.7824 8.95443 12.9191 9.00488 13.0786C9.05534 13.2365 9.09115 13.4123 9.1123 13.606V13.7695C9.09115 13.9583 9.05534 14.1309 9.00488 14.2871C8.95443 14.4434 8.88688 14.5785 8.80225 14.6924C8.71761 14.8063 8.61426 14.8942 8.49219 14.9561C8.37174 15.0179 8.23096 15.0488 8.06982 15.0488C7.91032 15.0488 7.76628 15.0155 7.6377 14.9487C7.51074 14.882 7.40251 14.7884 7.31299 14.668C7.22347 14.5475 7.15511 14.4059 7.10791 14.2432C7.06071 14.0788 7.03711 13.9006 7.03711 13.7085ZM7.62549 13.6572V13.7085C7.62549 13.8289 7.63607 13.9412 7.65723 14.0454C7.68001 14.1496 7.71501 14.2415 7.76221 14.3213C7.80941 14.3994 7.87044 14.4613 7.94531 14.5068C8.02181 14.5508 8.11296 14.5728 8.21875 14.5728C8.35221 14.5728 8.46208 14.5435 8.54834 14.4849C8.6346 14.4263 8.70215 14.3473 8.75098 14.248C8.80143 14.1471 8.83561 14.0348 8.85352 13.9111V13.4692C8.84375 13.3732 8.8234 13.2837 8.79248 13.2007C8.76318 13.1177 8.72331 13.0452 8.67285 12.9834C8.6224 12.9199 8.55973 12.8711 8.48486 12.8369C8.41162 12.8011 8.32454 12.7832 8.22363 12.7832C8.11621 12.7832 8.02507 12.806 7.9502 12.8516C7.87533 12.8971 7.81348 12.9598 7.76465 13.0396C7.71745 13.1193 7.68245 13.2121 7.65967 13.3179C7.63688 13.4237 7.62549 13.5368 7.62549 13.6572ZM12.7793 11.4331V15H12.1909V12.1313L11.3193 12.4268V11.9409L12.7085 11.4331H12.7793ZM16.3975 14.5312V15H14.0146V14.5972L15.1719 13.335C15.2988 13.1917 15.3989 13.068 15.4722 12.9639C15.5454 12.8597 15.5967 12.7661 15.626 12.6831C15.6569 12.5985 15.6724 12.5163 15.6724 12.4365C15.6724 12.3242 15.6512 12.2257 15.6089 12.1411C15.5682 12.0549 15.508 11.9873 15.4282 11.9385C15.3485 11.888 15.2516 11.8628 15.1377 11.8628C15.0059 11.8628 14.8952 11.8913 14.8057 11.9482C14.7161 12.0052 14.6486 12.0841 14.603 12.1851C14.5575 12.2843 14.5347 12.3983 14.5347 12.5269H13.9463C13.9463 12.3201 13.9935 12.1313 14.0879 11.9604C14.1823 11.7879 14.319 11.6512 14.498 11.5503C14.6771 11.4478 14.8927 11.3965 15.145 11.3965C15.3826 11.3965 15.5845 11.4364 15.7505 11.5161C15.9165 11.5959 16.0426 11.709 16.1289 11.8555C16.2168 12.002 16.2607 12.1753 16.2607 12.3755C16.2607 12.4862 16.2428 12.596 16.207 12.7051C16.1712 12.8141 16.12 12.9232 16.0532 13.0322C15.9881 13.1396 15.9108 13.2479 15.8213 13.3569C15.7318 13.4644 15.6333 13.5734 15.5259 13.6841L14.7568 14.5312H16.3975ZM17.4717 11.25V15H16.8857V11.25H17.4717ZM17.3691 13.5815L17.1787 13.5791C17.1803 13.3968 17.2056 13.2284 17.2544 13.0737C17.3049 12.9191 17.3748 12.7848 17.4644 12.6709C17.5555 12.5553 17.6646 12.4666 17.7915 12.4048C17.9185 12.3413 18.0592 12.3096 18.2139 12.3096C18.3441 12.3096 18.4613 12.3275 18.5654 12.3633C18.6712 12.3991 18.7624 12.4569 18.8389 12.5366C18.9154 12.6147 18.9731 12.7173 19.0122 12.8442C19.0529 12.9696 19.0732 13.1226 19.0732 13.3032V15H18.4824V13.2983C18.4824 13.1714 18.4637 13.0705 18.4263 12.9956C18.3905 12.9207 18.3376 12.867 18.2676 12.8345C18.1976 12.8003 18.1121 12.7832 18.0112 12.7832C17.9054 12.7832 17.8118 12.8044 17.7305 12.8467C17.6507 12.889 17.584 12.9468 17.5303 13.02C17.4766 13.0933 17.4359 13.1779 17.4082 13.2739C17.3822 13.37 17.3691 13.4725 17.3691 13.5815ZM22.4863 11.4331V15H21.8979V12.1313L21.0264 12.4268V11.9409L22.4155 11.4331H22.4863ZM26.0386 12.9248V13.5059C26.0386 13.7842 26.0109 14.0218 25.9556 14.2188C25.9019 14.4141 25.8237 14.5728 25.7212 14.6948C25.6187 14.8169 25.4958 14.9064 25.3525 14.9634C25.2109 15.0203 25.0522 15.0488 24.8765 15.0488C24.7365 15.0488 24.6063 15.0309 24.4858 14.9951C24.367 14.9593 24.2596 14.9032 24.1636 14.8267C24.0675 14.7502 23.9854 14.6517 23.917 14.5312C23.8503 14.4092 23.7982 14.2635 23.7607 14.0942C23.7249 13.925 23.707 13.7288 23.707 13.5059V12.9248C23.707 12.6449 23.7347 12.4089 23.79 12.2168C23.8454 12.0231 23.9243 11.866 24.0269 11.7456C24.1294 11.6235 24.2515 11.5348 24.3931 11.4795C24.5363 11.4242 24.6958 11.3965 24.8716 11.3965C25.0132 11.3965 25.1434 11.4144 25.2622 11.4502C25.3826 11.4844 25.4901 11.5389 25.5845 11.6138C25.6805 11.6886 25.7619 11.7863 25.8286 11.9067C25.897 12.0256 25.9491 12.1696 25.9849 12.3389C26.0207 12.5065 26.0386 12.7018 26.0386 12.9248ZM25.4502 13.5889V12.8369C25.4502 12.6953 25.4421 12.5708 25.4258 12.4634C25.4095 12.3543 25.3851 12.2624 25.3525 12.1875C25.3216 12.111 25.2826 12.0492 25.2354 12.002C25.1882 11.9531 25.1344 11.9181 25.0742 11.897C25.014 11.8742 24.9465 11.8628 24.8716 11.8628C24.7804 11.8628 24.6991 11.8807 24.6274 11.9165C24.5558 11.9507 24.4956 12.006 24.4468 12.0825C24.3979 12.159 24.3605 12.2599 24.3345 12.3853C24.3101 12.509 24.2979 12.6595 24.2979 12.8369V13.5889C24.2979 13.7321 24.306 13.8582 24.3223 13.9673C24.3385 14.0763 24.363 14.1699 24.3955 14.248C24.4281 14.3245 24.4671 14.388 24.5127 14.4385C24.5599 14.4873 24.6136 14.5231 24.6738 14.5459C24.7357 14.5687 24.8032 14.5801 24.8765 14.5801C24.9692 14.5801 25.0514 14.5622 25.123 14.5264C25.1947 14.4906 25.2549 14.4336 25.3037 14.3555C25.3525 14.2757 25.3892 14.1724 25.4136 14.0454C25.438 13.9185 25.4502 13.7663 25.4502 13.5889ZM27.186 12.8955V15H26.5977V12.3584H27.1519L27.186 12.8955ZM27.0908 13.5815L26.8906 13.5791C26.8906 13.3968 26.9134 13.2284 26.959 13.0737C27.0046 12.9191 27.0713 12.7848 27.1592 12.6709C27.2471 12.5553 27.3561 12.4666 27.4863 12.4048C27.6182 12.3413 27.7703 12.3096 27.9429 12.3096C28.0633 12.3096 28.1732 12.3275 28.2725 12.3633C28.3734 12.3975 28.4604 12.452 28.5337 12.5269C28.6086 12.6017 28.6655 12.6978 28.7046 12.8149C28.7453 12.9321 28.7656 13.0737 28.7656 13.2397V15H28.1772V13.291C28.1772 13.1624 28.1577 13.0615 28.1187 12.9883C28.0812 12.915 28.0267 12.863 27.9551 12.832C27.8851 12.7995 27.8013 12.7832 27.7036 12.7832C27.5929 12.7832 27.4985 12.8044 27.4204 12.8467C27.3439 12.889 27.2812 12.9468 27.2324 13.02C27.1836 13.0933 27.1478 13.1779 27.125 13.2739C27.1022 13.37 27.0908 13.4725 27.0908 13.5815ZM28.729 13.4253L28.4531 13.4863C28.4531 13.3268 28.4751 13.1763 28.519 13.0347C28.5646 12.8914 28.6305 12.7661 28.7168 12.6587C28.8047 12.5496 28.9129 12.4642 29.0415 12.4023C29.1701 12.3405 29.3174 12.3096 29.4834 12.3096C29.6185 12.3096 29.7389 12.3283 29.8447 12.3657C29.9521 12.4015 30.0433 12.4585 30.1182 12.5366C30.193 12.6147 30.25 12.7165 30.2891 12.8418C30.3281 12.9655 30.3477 13.1152 30.3477 13.291V15H29.7568V13.2886C29.7568 13.1551 29.7373 13.0518 29.6982 12.9785C29.6608 12.9053 29.6071 12.8548 29.5371 12.8271C29.4671 12.7979 29.3833 12.7832 29.2856 12.7832C29.1945 12.7832 29.1139 12.8003 29.0439 12.8345C28.9756 12.867 28.9178 12.9134 28.8706 12.9736C28.8234 13.0322 28.7876 13.0998 28.7632 13.1763C28.7404 13.2528 28.729 13.3358 28.729 13.4253Z" fill="#021752"/>
</g>
<defs>
<clipPath id="clip0_307_73">
<rect width="35" height="26" fill="white"/>
</clipPath>
</defs>
</svg>
